HIERARCHY
ROOT Hip
{
	OFFSET 0 1.131 0.0052
	CHANNELS 6 Xposition Yposition Zposition Xrotation Yrotation Zrotation
	JOINT Abdomen
	{
		OFFSET 0 -0.047353 -0.05
		CHANNELS 3 Xrotation Zrotation Yrotation
		JOINT Chest
		{
			OFFSET 0 0.132153 0.007439
			CHANNELS 3 Xrotation Zrotation Yrotation
			JOINT Neck
			{
				OFFSET 0 0.3078 0.006161
				CHANNELS 3 Xrotation Zrotation Yrotation
				JOINT Head_comp
				{
					OFFSET 0 0.0884 0.013
					CHANNELS 3 Xrotation Yrotation Zrotation
					End Site
					{
						OFFSET -0 0.156 0.0624
					}
				}
			}
			JOINT Left_Collar
			{
				OFFSET 0.02282 0.250342 0.017193
				CHANNELS 2 Yrotation Zrotation
				JOINT Left_Shoulder
				{
					OFFSET 0.15421 0 0
					CHANNELS 3 Xrotation Yrotation Zrotation
					JOINT Left_Forearm
					{
						OFFSET 0.265212 0 0
						CHANNELS 2 Yrotation Xrotation
						JOINT Left_Hand
						{
							OFFSET 0.27571 0 0
							CHANNELS 2 Zrotation Yrotation
							JOINT L1ProxPhalanx
							{
								OFFSET 0.014142 0.001733 0.014142
								CHANNELS 3 Yrotation Zrotation Xrotation
								JOINT L1MidPhalanx
								{
									OFFSET 0.04 0 0
									CHANNELS 1 Zrotation
									JOINT L1DistPhalanx
									{
										OFFSET 0.035 0 0
										CHANNELS 1 Zrotation
										End Site
										{
											OFFSET 0.029 -0 -0
										}
									}
								}
							}
							JOINT L2ProxPhalanx
							{
								OFFSET 0.0821037 0.001578 0.0219996
								CHANNELS 2 Yrotation Zrotation
								JOINT L2MidPhalanx
								{
									OFFSET 0.04 0 0
									CHANNELS 1 Zrotation
									JOINT L2DistPhalanx
									{
										OFFSET 0.028 0 0
										CHANNELS 1 Zrotation
										End Site
										{
											OFFSET 0.02 -0 -0
										}
									}
								}
							}
							JOINT L3ProxPhalanx
							{
								OFFSET 0.083 0 0
								CHANNELS 2 Yrotation Zrotation
								JOINT L3MidPhalanx
								{
									OFFSET 0.053 0 0
									CHANNELS 1 Zrotation
									JOINT L3DistPhalanx
									{
										OFFSET 0.03 0 0
										CHANNELS 1 Zrotation
										End Site
										{
											OFFSET 0.023 -0 -0
										}
									}
								}
							}
							JOINT L4ProxPhalanx
							{
								OFFSET 0.077274 -0.000761 -0.0207055
								CHANNELS 2 Yrotation Zrotation
								JOINT L4MidPhalanx
								{
									OFFSET 0.05 0 0
									CHANNELS 1 Zrotation
									JOINT L4DistPhalanx
									{
										OFFSET 0.03 0 0
										CHANNELS 1 Zrotation
										End Site
										{
											OFFSET 0.023 -0 -0
										}
									}
								}
							}
							JOINT L5ProxPhalanx
							{
								OFFSET 0.0675499 -0.001644 -0.039
								CHANNELS 2 Yrotation Zrotation
								JOINT L5MidPhalanx
								{
									OFFSET 0.04 0 0
									CHANNELS 1 Zrotation
									JOINT L5DistPhalanx
									{
										OFFSET 0.021 0 0
										CHANNELS 1 Zrotation
										End Site
										{
											OFFSET 0.022 -0 -0
										}
									}
								}
							}
						}
					}
				}
			}
			JOINT Right_Collar
			{
				OFFSET -0.02282 0.250342 0.017193
				CHANNELS 2 Yrotation Zrotation
				JOINT Right_Shoulder
				{
					OFFSET -0.15421 0 0
					CHANNELS 3 Xrotation Yrotation Zrotation
					JOINT Right_Forearm
					{
						OFFSET -0.265212 0 0
						CHANNELS 2 Yrotation Xrotation
						JOINT Right_Hand
						{
							OFFSET -0.27571 3e-006 0
							CHANNELS 2 Zrotation Yrotation
							JOINT R1ProxPhalanx
							{
								OFFSET -0.014142 0.001733 0.014142
								CHANNELS 3 Yrotation Zrotation Xrotation
								JOINT R1MidPhalanx
								{
									OFFSET -0.04 0 0
									CHANNELS 1 Zrotation
									JOINT R1DistPhalanx
									{
										OFFSET -0.035 0 0
										CHANNELS 1 Zrotation
										End Site
										{
											OFFSET -0.029 -0 -0
										}
									}
								}
							}
							JOINT R2ProxPhalanx
							{
								OFFSET -0.0821037 0.001578 0.0219996
								CHANNELS 2 Yrotation Zrotation
								JOINT R2MidPhalanx
								{
									OFFSET -0.04 0 0
									CHANNELS 1 Zrotation
									JOINT R2DistPhalanx
									{
										OFFSET -0.028 0 0
										CHANNELS 1 Zrotation
										End Site
										{
											OFFSET -0.02 -0 -0
										}
									}
								}
							}
							JOINT R3ProxPhalanx
							{
								OFFSET -0.083 0 0
								CHANNELS 2 Yrotation Zrotation
								JOINT R3MidPhalanx
								{
									OFFSET -0.053 0 0
									CHANNELS 1 Zrotation
									JOINT R3DistPhalanx
									{
										OFFSET -0.03 0 0
										CHANNELS 1 Zrotation
										End Site
										{
											OFFSET -0.023 -0 -0
										}
									}
								}
							}
							JOINT R4ProxPhalanx
							{
								OFFSET -0.077274 -0.000761 -0.0207055
								CHANNELS 2 Yrotation Zrotation
								JOINT R4MidPhalanx
								{
									OFFSET -0.05 0 0
									CHANNELS 1 Zrotation
									JOINT R4DistPhalanx
									{
										OFFSET -0.03 0 0
										CHANNELS 1 Zrotation
										End Site
										{
											OFFSET -0.023 -0 -0
										}
									}
								}
							}
							JOINT R5ProxPhalanx
							{
								OFFSET -0.0675499 -0.001644 -0.039
								CHANNELS 2 Yrotation Zrotation
								JOINT R5MidPhalanx
								{
									OFFSET -0.04 0 0
									CHANNELS 1 Zrotation
									JOINT R5DistPhalanx
									{
										OFFSET -0.021 0 0
										CHANNELS 1 Zrotation
										End Site
										{
											OFFSET -0.022 -0 -0
										}
									}
								}
							}
						}
					}
				}
			}
		}
	}
	JOINT Left_Thigh
	{
		OFFSET 0.1118 -0.1612 -0.0442
		CHANNELS 3 Xrotation Zrotation Yrotation
		JOINT Left_Shin
		{
			OFFSET 0 -0.477856 0
			CHANNELS 1 Xrotation
			JOINT Left_Foot
			{
				OFFSET 0 -0.431952 0
				CHANNELS 2 Xrotation Zrotation
				JOINT Left_Toe
				{
					OFFSET 0 -0.0442 0.119
					CHANNELS 1 Xrotation
					End Site
					{
						OFFSET -0 -0 0.07
					}
				}
			}
		}
	}
	JOINT Right_Thigh
	{
		OFFSET -0.1118 -0.1612 -0.0442
		CHANNELS 3 Xrotation Zrotation Yrotation
		JOINT Right_Shin
		{
			OFFSET 0 -0.477856 0
			CHANNELS 1 Xrotation
			JOINT Right_Foot
			{
				OFFSET 0 -0.431952 0
				CHANNELS 2 Xrotation Zrotation
				JOINT Right_Toe
				{
					OFFSET 0 -0.0442 0.119
					CHANNELS 1 Xrotation
					End Site
					{
						OFFSET -0 -0 0.07
					}
				}
			}
		}
	}
}
MOTION
Frames: 7
Frame Time: 0.009975
-0.101064 -0.0600573 0.0409045 3.12023e-012 1.06969e-008 -5.10967e-006 0 0 0 0 0 0 0 0 0 0 0 0 0 0 -0 0 -0 0 0 0 0 -7.63552 -79.7302 133.262 -6.47563 -5.77158 1.70667 -27.4733 -5.60456 -10.1656 0.436594 0.126337 -6.68 -6.1817 -5.52813 1.9417 -15.1916 -2.82033 1.6233 5.04203 -54.7422 25.0129 0 0 -0 0 -0 0 0 0 0 37.9386 28.008 73.698 26.2405 28.4472 13.118 18.2167 29.0248 19.6359 0 22.4358 32.6146 28.1246 -8.63175 30.7051 32.2053 23.7634 -7.83088 26.7354 35.1526 30.0193 0.108541 -0.676102 -0.00128078 0.0240216 -0.132555 0.676108 0 0.119946 -0.676101 -0.00141537 0 -0.119938 0.676108 0 
-0.101064 -0.0600573 0.0409045 3.12023e-012 1.06969e-008 -5.10967e-006 0 0 0 0 0 0 0 0 0 0 0 0 0 0 -0 0 -0 0 0 0 0 -7.63552 -79.7302 133.262 -6.47563 -5.77158 1.70667 -27.4733 -5.60456 -10.1656 0.436594 0.126337 -6.68 -6.1817 -5.52813 1.9417 -15.1916 -2.82033 1.6233 5.04203 -54.7422 25.0129 0 0 -0 0 -0 0 0 0 0 37.9386 28.008 73.698 26.2405 28.4472 13.118 18.2167 29.0248 19.6359 0 22.4358 32.6146 28.1246 -8.63175 30.7051 32.2053 23.7634 -7.83088 26.7354 35.1526 30.0193 0.108541 -0.676102 -0.00128078 0.0240216 -0.132555 0.676108 0 0.119946 -0.676101 -0.00141537 0 -0.119938 0.676108 0 
-0.101405 -0.0600538 0.0409618 -4.98993e-012 1.10185e-008 -5.0841e-006 0 -0 0 0 -0 0 0 -0 0 -0.710287 0.291076 -9.06651e-006 -0.30234 -22.4743 -8.56312 -24.8035 -27.5992 -50.2367 9.96444 13.7479 -10.3234 -8.98527 -79.5676 131.886 -6.61825 -5.84272 1.69314 -27.4859 -5.77654 -10.1898 0.434468 -0.034299 -6.8466 -6.24079 -5.49401 1.77223 -15.3156 -2.89623 1.64473 4.89689 -54.6385 24.7878 0.30234 22.4743 -8.56312 24.8035 27.5992 50.2367 9.96444 -13.7479 10.3234 8.98527 79.5676 131.886 6.61825 5.84272 -1.69314 27.4859 5.77654 10.1898 -0.434468 0.034299 6.8466 6.24079 5.49401 -1.77223 15.3156 2.89623 -1.64473 -4.89689 54.6385 -24.7878 0.112204 -0.654629 -0.00128519 0.0239015 -0.136099 0.654635 0 0.123553 -0.654628 -0.00141517 0 -0.123545 0.654635 0 
-0.10135 -0.0600528 0.0402144 -5.015e-012 1.10739e-008 -5.10965e-006 0 -0 0 0 -0 0 0 -0 0 -0.712059 0.290876 -1.97068e-010 -0.30384 -22.5873 -8.1803 -24.8645 -25.7181 -50.9835 10.0112 13.8168 -10.3751 -7.63552 -79.7302 133.262 -6.47563 -5.77158 1.70667 -27.4733 -5.60456 -10.1656 0.436594 0.126337 -6.68 -6.1817 -5.52813 1.9417 -15.1916 -2.82033 1.6233 5.04203 -54.7422 25.0129 0.30384 22.5873 -8.1803 24.8645 25.7181 50.9835 10.0112 -13.8168 10.3751 7.63552 79.7302 133.262 6.47563 5.77158 -1.70667 27.4733 5.60456 10.1656 -0.436594 -0.126337 6.68 6.1817 5.52813 -1.9417 15.1916 2.82033 -1.6233 -5.04203 54.7422 -25.0129 0.0650755 -0.658113 -0.000747463 0.0240216 -0.0890928 0.658119 0 0.0764811 -0.658113 -0.000878468 0 -0.076476 0.658119 0 
-0.10135 -0.0600528 0.0402069 -1.06999e-011 6.78847e-009 -5.10966e-006 0 -0 0 0 -0 0 0 -0 0 -0.712036 0.290858 -5.13508e-015 -0.30384 -22.5873 -8.17766 -24.8639 -25.7063 -50.9873 10.0112 13.8168 -10.3751 -7.63552 -79.7302 133.262 -6.47563 -5.77158 1.70667 -27.4733 -5.60456 -10.1656 0.436594 0.126337 -6.68 -6.1817 -5.52813 1.9417 -15.1916 -2.82033 1.6233 5.04203 -54.7422 25.0129 0.30384 22.5873 -8.17766 24.8639 25.7063 50.9873 10.0112 -13.8168 10.3751 7.63552 79.7302 133.262 6.47563 5.77158 -1.70667 27.4733 5.60456 10.1656 -0.436594 -0.126337 6.68 6.1817 5.52813 -1.9417 15.1916 2.82033 -1.6233 -5.04203 54.7422 -25.0129 0.0646018 -0.658116 -0.000742027 0.0240216 -0.0886192 0.658122 0 0.0760074 -0.658116 -0.000873031 1.69047e-006 -0.0760041 0.658122 0 
-0.10135 -0.0600528 0.0402068 -1.36538e-011 6.77827e-009 -5.10966e-006 0 -0 0 0 -0 0 0 -0 0 -0.712036 0.290857 -0 -0.30384 -22.5873 -8.17766 -24.8639 -25.7063 -50.9873 10.0112 13.8168 -10.3751 -7.63552 -79.7302 133.262 -6.47563 -5.77158 1.70667 -27.4733 -5.60456 -10.1656 0.436594 0.126337 -6.68 -6.1817 -5.52813 1.9417 -15.1916 -2.82033 1.6233 5.04203 -54.7422 25.0129 0.30384 22.5873 -8.17766 24.8639 25.7063 50.9873 10.0112 -13.8168 10.3751 7.63552 79.7302 133.262 6.47563 5.77158 -1.70667 27.4733 5.60456 10.1656 -0.436594 -0.126337 6.68 6.1817 5.52813 -1.9417 15.1916 2.82033 -1.6233 -5.04203 54.7422 -25.0129 0.0645997 -0.658116 -0.000742003 0.0240216 -0.0886181 0.658122 0 0.0760063 -0.658116 -0.000873018 1.70755e-006 -0.076003 0.658122 0 
-0.10135 -0.0600528 0.0402068 -1.27854e-011 6.77818e-009 -5.10966e-006 0 -0 0 0 -0 0 0 -0 0 -0.712036 0.290857 -0 -0.30384 -22.5873 -8.17766 -24.8639 -25.7063 -50.9873 10.0112 13.8168 -10.3751 -7.63552 -79.7302 133.262 -6.47563 -5.77158 1.70667 -27.4733 -5.60456 -10.1656 0.436594 0.126337 -6.68 -6.1817 -5.52813 1.9417 -15.1916 -2.82033 1.6233 5.04203 -54.7422 25.0129 0.30384 22.5873 -8.17766 24.8639 25.7063 50.9873 10.0112 -13.8168 10.3751 7.63552 79.7302 133.262 6.47563 5.77158 -1.70667 27.4733 5.60456 10.1656 -0.436594 -0.126337 6.68 6.1817 5.52813 -1.9417 15.1916 2.82033 -1.6233 -5.04203 54.7422 -25.0129 0.0645997 -0.658116 -0.000742002 0.0240216 -0.0886171 0.658122 0 0.0760053 -0.658116 -0.000873006 2.41484e-006 -0.0760027 0.658122 0 
